;TYPE=PLATED
;Layer: PTH_Through
;EasyEDA Pro v2.0.25.bcaee6, 2025-12-15 15:41:01
;Gerber Generator version 0.3
M48
METRIC,LZ,000.000
;Hole size 1 = 0.305 METRIC
T01C0.305
;Hole size 2 = 1.000 METRIC
T02C1.000
;Hole size 3 = 1.100 METRIC
T03C1.100
;Hole size 4 = 1.200 METRIC
T04C1.200
%
G05
G90
T01
X057912Y-068072
X031623Y-076454
X003810Y-066802
X025527Y-066802
X022098Y-077216
X009906Y-091313
X052832Y-076322
X041783Y-087889
X043053Y-087889
X044323Y-087889
X045593Y-087889
X046863Y-087889
X048133Y-087889
X052832Y-077592
X034798Y-091948
X039751Y-087884
T02
X097917Y-066548
X095377Y-066548
X092837Y-066548
X090297Y-066548
X087757Y-066548
X085217Y-066548
X082677Y-066548
X080137Y-066548
T03
X002159Y-068453
X004699Y-068453
X007239Y-068453
X009779Y-068453
X051829Y-093442
T04
X012319Y-068453
X014859Y-068453
X024077Y-075296
X024077Y-078296
X024077Y-086296
X024077Y-089296
X001577Y-075296
X001577Y-089296
X007747Y-093472
X010287Y-093472
X002639Y-093496
X005179Y-093496
M30