G04 Layer: TopSolderMaskLayer*
G04 EasyEDA Pro v2.0.25.bcaee6, 2025-12-15 15:41:01*
G04 Gerber Generator version 0.3*
G04 Scale: 100 percent, Rotated: No, Reflected: No*
G04 Dimensions in millimeters*
G04 Leading zeros omitted, absolute positions, 3 integers and 3 decimals*
%FSLAX33Y33*%
%MOMM*%
%AMRoundRect*1,1,$1,$2,$3*1,1,$1,$4,$5*1,1,$1,0-$2,0-$3*1,1,$1,0-$4,0-$5*20,1,$1,$2,$3,$4,$5,0*20,1,$1,$4,$5,0-$2,0-$3,0*20,1,$1,0-$2,0-$3,0-$4,0-$5,0*20,1,$1,0-$4,0-$5,$2,$3,0*4,1,4,$2,$3,$4,$5,0-$2,0-$3,0-$4,0-$5,$2,$3,0*%
%ADD10RoundRect,0.1X-0.75X0.45X0.75X0.45*%
%ADD11RoundRect,0.1X-0.45X-0.75X-0.45X0.75*%
%ADD12RoundRect,0.1X0.75X-0.45X-0.75X-0.45*%
%ADD13RoundRect,0.102X-0.45X-0.45X-0.45X0.45*%
%ADD14RoundRect,0.102X0.5X0.275X0.5X-0.275*%
%ADD15RoundRect,0.102X0.45X0.4X0.45X-0.4*%
%ADD16RoundRect,0.102X-0.45X-0.4X-0.45X0.4*%
%ADD17RoundRect,0.102X-0.432X-0.403X-0.432X0.403*%
%ADD18RoundRect,0.102X-0.403X0.432X0.403X0.432*%
%ADD19RoundRect,0.102X-1.0X1.0X1.0X1.0*%
%ADD20C,2.102*%
%ADD21RoundRect,0.102X0.4X-0.45X-0.4X-0.45*%
%ADD22RoundRect,0.102X0.432X0.403X0.432X-0.403*%
%ADD23RoundRect,0.102X1.15X-0.75X-1.15X-0.75*%
%ADD24RoundRect,0.102X-0.85X0.85X0.85X0.85*%
%ADD25C,1.802*%
%ADD26RoundRect,0.102X-1.15X0.75X1.15X0.75*%
%ADD27RoundRect,0.102X0.75X-0.75X-0.75X-0.75*%
%ADD28C,1.602*%
%ADD29C,1.902*%
G75*


G04 Pad Start*
G54D10*
G01X37478Y-72512D03*
G01X37478Y-73782D03*
G01X37478Y-75052D03*
G01X37478Y-76322D03*
G01X37478Y-77592D03*
G01X37478Y-78862D03*
G01X37478Y-80132D03*
G01X37478Y-81402D03*
G01X37478Y-82672D03*
G01X37478Y-83942D03*
G01X37478Y-85212D03*
G01X37478Y-86482D03*
G01X37478Y-87752D03*
G01X37478Y-89022D03*
G54D11*
G01X39243Y-90302D03*
G01X40513Y-90302D03*
G01X41783Y-90302D03*
G01X43053Y-90302D03*
G01X44323Y-90302D03*
G01X45593Y-90302D03*
G01X46863Y-90302D03*
G01X48133Y-90302D03*
G01X49403Y-90302D03*
G01X50673Y-90302D03*
G01X51943Y-90302D03*
G01X53213Y-90272D03*
G54D12*
G01X54978Y-89022D03*
G01X54978Y-87752D03*
G01X54978Y-86482D03*
G01X54978Y-85212D03*
G01X54978Y-83942D03*
G01X54978Y-82672D03*
G01X54978Y-81402D03*
G01X54978Y-80132D03*
G01X54978Y-78862D03*
G01X54978Y-77592D03*
G01X54978Y-76322D03*
G01X54978Y-75052D03*
G01X54978Y-73782D03*
G01X54978Y-72512D03*
G54D13*
G01X46128Y-81632D03*
G01X44728Y-81632D03*
G01X43328Y-81632D03*
G01X43328Y-78832D03*
G01X44728Y-78832D03*
G01X46128Y-78832D03*
G01X46128Y-80232D03*
G01X43328Y-80232D03*
G01X44728Y-80232D03*
G54D14*
G01X28872Y-70170D03*
G01X28872Y-72070D03*
G01X26329Y-72070D03*
G01X26329Y-71120D03*
G01X26329Y-70170D03*
G54D15*
G01X24130Y-71692D03*
G01X24130Y-70292D03*
G54D16*
G01X30988Y-70292D03*
G01X30988Y-71692D03*
G01X33909Y-70293D03*
G01X33909Y-71693D03*
G54D15*
G01X30988Y-74995D03*
G01X30988Y-73595D03*
G54D17*
G01X33909Y-73542D03*
G01X33909Y-75048D03*
G54D18*
G01X33899Y-87536D03*
G01X32392Y-87536D03*
G01X33899Y-89248D03*
G01X32392Y-89248D03*
G54D19*
G01X12319Y-68453D03*
G54D20*
G01X14859Y-68453D03*
G54D21*
G01X32446Y-91059D03*
G01X33846Y-91059D03*
G01X32446Y-85725D03*
G01X33846Y-85725D03*
G54D22*
G01X54991Y-94196D03*
G01X54991Y-92689D03*
G54D23*
G01X67791Y-70592D03*
G01X58691Y-70592D03*
G01X67791Y-66092D03*
G01X58691Y-66092D03*
G54D24*
G01X2159Y-68453D03*
G54D25*
G01X4699Y-68453D03*
G01X7239Y-68453D03*
G01X9779Y-68453D03*
G54D26*
G01X58686Y-74172D03*
G01X67785Y-74172D03*
G01X58686Y-78672D03*
G01X67785Y-78672D03*
G01X58680Y-82253D03*
G01X67780Y-82253D03*
G01X58680Y-86753D03*
G01X67780Y-86753D03*
G01X58696Y-90333D03*
G01X67796Y-90333D03*
G01X58696Y-94833D03*
G01X67796Y-94833D03*
G54D24*
G01X51829Y-93442D03*
G54D27*
G01X97917Y-66548D03*
G54D28*
G01X95377Y-66548D03*
G01X92837Y-66548D03*
G01X90297Y-66548D03*
G01X87757Y-66548D03*
G01X85217Y-66548D03*
G01X82677Y-66548D03*
G01X80137Y-66548D03*
G54D29*
G01X24077Y-75296D03*
G01X24077Y-78296D03*
G01X24077Y-86296D03*
G01X24077Y-89296D03*
G01X1577Y-75296D03*
G01X1577Y-89296D03*
G54D19*
G01X7747Y-93472D03*
G54D20*
G01X10287Y-93472D03*
G54D19*
G01X2639Y-93496D03*
G54D20*
G01X5179Y-93496D03*
G04 Pad End*

M02*
