G04 Layer: TopPasteMaskLayer*
G04 EasyEDA Pro v2.0.25.bcaee6, 2025-12-15 15:41:01*
G04 Gerber Generator version 0.3*
G04 Scale: 100 percent, Rotated: No, Reflected: No*
G04 Dimensions in millimeters*
G04 Leading zeros omitted, absolute positions, 3 integers and 3 decimals*
%FSLAX33Y33*%
%MOMM*%
%ADD10R,1.5X0.9*%
%ADD11R,0.9X1.5*%
%ADD12R,1.5X0.9*%
%ADD13R,0.9X0.9*%
%ADD14R,1.0X0.55*%
%ADD15R,0.9X0.8*%
%ADD16R,0.9X0.8*%
%ADD17R,0.8X0.9*%
%ADD18R,2.3X1.5*%
%ADD19R,2.3X1.5*%
G75*


G04 PolygonModel Start*
G36*
G01X33459Y-73100D02*
G01X33459Y-73900D01*
G01X33509Y-73950D01*
G01X33737D01*
G01Y-73580D01*
G01X34067D01*
G01Y-73950D01*
G01X34309D01*
G01X34359Y-73900D01*
G01Y-73100D01*
G01X34309Y-73050D01*
G01X33509D01*
G01X33459Y-73100D01*
G37*
G36*
G01X34359Y-75490D02*
G01X34359Y-74690D01*
G01X34309Y-74640D01*
G01X34081D01*
G01Y-75010D01*
G01X33751D01*
G01Y-74640D01*
G01X33509D01*
G01X33459Y-74690D01*
G01Y-75490D01*
G01X33509Y-75540D01*
G01X34309D01*
G01X34359Y-75490D01*
G37*
G36*
G01X34341Y-87086D02*
G01X33541Y-87086D01*
G01X33491Y-87136D01*
G01Y-87364D01*
G01X33861D01*
G01Y-87694D01*
G01X33491D01*
G01Y-87936D01*
G01X33541Y-87986D01*
G01X34341D01*
G01X34391Y-87936D01*
G01Y-87136D01*
G01X34341Y-87086D01*
G37*
G36*
G01X31951Y-87986D02*
G01X32751Y-87986D01*
G01X32801Y-87936D01*
G01Y-87708D01*
G01X32431D01*
G01Y-87378D01*
G01X32801D01*
G01Y-87136D01*
G01X32751Y-87086D01*
G01X31951D01*
G01X31901Y-87136D01*
G01Y-87936D01*
G01X31951Y-87986D01*
G37*
G36*
G01X34341Y-88798D02*
G01X33541Y-88798D01*
G01X33491Y-88848D01*
G01Y-89076D01*
G01X33861D01*
G01Y-89406D01*
G01X33491D01*
G01Y-89648D01*
G01X33541Y-89698D01*
G01X34341D01*
G01X34391Y-89648D01*
G01Y-88848D01*
G01X34341Y-88798D01*
G37*
G36*
G01X31951Y-89698D02*
G01X32751Y-89698D01*
G01X32801Y-89648D01*
G01Y-89420D01*
G01X32431D01*
G01Y-89090D01*
G01X32801D01*
G01Y-88848D01*
G01X32751Y-88798D01*
G01X31951D01*
G01X31901Y-88848D01*
G01Y-89648D01*
G01X31951Y-89698D01*
G37*
G36*
G01X55441Y-94637D02*
G01X55441Y-93837D01*
G01X55391Y-93787D01*
G01X55163D01*
G01Y-94157D01*
G01X54833D01*
G01Y-93787D01*
G01X54591D01*
G01X54541Y-93837D01*
G01Y-94637D01*
G01X54591Y-94687D01*
G01X55391D01*
G01X55441Y-94637D01*
G37*
G36*
G01X54541Y-92247D02*
G01X54541Y-93047D01*
G01X54591Y-93097D01*
G01X54819D01*
G01Y-92727D01*
G01X55149D01*
G01Y-93097D01*
G01X55391D01*
G01X55441Y-93047D01*
G01Y-92247D01*
G01X55391Y-92197D01*
G01X54591D01*
G01X54541Y-92247D01*
G37*
G04 PolygonModel End*

G04 Pad Start*
G54D10*
G01X37478Y-72512D03*
G01X37478Y-73782D03*
G01X37478Y-75052D03*
G01X37478Y-76322D03*
G01X37478Y-77592D03*
G01X37478Y-78862D03*
G01X37478Y-80132D03*
G01X37478Y-81402D03*
G01X37478Y-82672D03*
G01X37478Y-83942D03*
G01X37478Y-85212D03*
G01X37478Y-86482D03*
G01X37478Y-87752D03*
G01X37478Y-89022D03*
G54D11*
G01X39243Y-90302D03*
G01X40513Y-90302D03*
G01X41783Y-90302D03*
G01X43053Y-90302D03*
G01X44323Y-90302D03*
G01X45593Y-90302D03*
G01X46863Y-90302D03*
G01X48133Y-90302D03*
G01X49403Y-90302D03*
G01X50673Y-90302D03*
G01X51943Y-90302D03*
G01X53213Y-90272D03*
G54D12*
G01X54978Y-89022D03*
G01X54978Y-87752D03*
G01X54978Y-86482D03*
G01X54978Y-85212D03*
G01X54978Y-83942D03*
G01X54978Y-82672D03*
G01X54978Y-81402D03*
G01X54978Y-80132D03*
G01X54978Y-78862D03*
G01X54978Y-77592D03*
G01X54978Y-76322D03*
G01X54978Y-75052D03*
G01X54978Y-73782D03*
G01X54978Y-72512D03*
G54D13*
G01X46128Y-81632D03*
G01X44728Y-81632D03*
G01X43328Y-81632D03*
G01X43328Y-78832D03*
G01X44728Y-78832D03*
G01X46128Y-78832D03*
G01X46128Y-80232D03*
G01X43328Y-80232D03*
G01X44728Y-80232D03*
G54D14*
G01X28872Y-70170D03*
G01X28872Y-72070D03*
G01X26329Y-72070D03*
G01X26329Y-71120D03*
G01X26329Y-70170D03*
G54D15*
G01X24130Y-71692D03*
G01X24130Y-70292D03*
G54D16*
G01X30988Y-70292D03*
G01X30988Y-71692D03*
G01X33909Y-70293D03*
G01X33909Y-71693D03*
G54D15*
G01X30988Y-74995D03*
G01X30988Y-73595D03*
G54D17*
G01X32446Y-91059D03*
G01X33846Y-91059D03*
G01X32446Y-85725D03*
G01X33846Y-85725D03*
G54D18*
G01X67791Y-70592D03*
G01X58691Y-70592D03*
G01X67791Y-66092D03*
G01X58691Y-66092D03*
G54D19*
G01X58686Y-74172D03*
G01X67785Y-74172D03*
G01X58686Y-78672D03*
G01X67785Y-78672D03*
G01X58680Y-82253D03*
G01X67780Y-82253D03*
G01X58680Y-86753D03*
G01X67780Y-86753D03*
G01X58696Y-90333D03*
G01X67796Y-90333D03*
G01X58696Y-94833D03*
G01X67796Y-94833D03*
G04 Pad End*

M02*
