G04 Layer: DrillDrawingLayer*
G04 EasyEDA Pro v2.0.25.bcaee6, 2025-12-15 15:41:01*
G04 Gerber Generator version 0.3*
G04 Scale: 100 percent, Rotated: No, Reflected: No*
G04 Dimensions in millimeters*
G04 Leading zeros omitted, absolute positions, 3 integers and 3 decimals*
%FSLAX33Y33*%
%MOMM*%
%ADD10C,0.254*%
G75*


G04 Image Start*
G36*
G01X1960Y-68254D02*
G01X1960Y-68290D01*
G01X1996D01*
G01X2322D01*
G01Y-68616D01*
G01X1996D01*
G01Y-68290D01*
G01X1960D01*
G01Y-68652D01*
G01X2359D01*
G01Y-68254D01*
G37*
G36*
G01X4500Y-68254D02*
G01X4500Y-68290D01*
G01X4536D01*
G01X4862D01*
G01Y-68616D01*
G01X4536D01*
G01Y-68290D01*
G01X4500D01*
G01Y-68652D01*
G01X4899D01*
G01Y-68254D01*
G37*
G36*
G01X7040Y-68254D02*
G01X7040Y-68290D01*
G01X7076D01*
G01X7402D01*
G01Y-68616D01*
G01X7076D01*
G01Y-68290D01*
G01X7040D01*
G01Y-68652D01*
G01X7439D01*
G01Y-68254D01*
G37*
G36*
G01X9580Y-68254D02*
G01X9580Y-68290D01*
G01X9616D01*
G01X9942D01*
G01Y-68616D01*
G01X9616D01*
G01Y-68290D01*
G01X9580D01*
G01Y-68652D01*
G01X9979D01*
G01Y-68254D01*
G37*
G36*
G01X51630Y-93243D02*
G01X51630Y-93279D01*
G01X51666D01*
G01X51992D01*
G01Y-93606D01*
G01X51666D01*
G01Y-93279D01*
G01X51630D01*
G01Y-93642D01*
G01X52028D01*
G01Y-93243D01*
G37*
G36*
G01X97917Y-66348D02*
G01X97897Y-66350D01*
G01X97877Y-66352D01*
G01X97858Y-66357D01*
G01X97839Y-66364D01*
G01X97822Y-66373D01*
G01X97806Y-66383D01*
G01X97790Y-66394D01*
G01X97776Y-66407D01*
G01X97763Y-66421D01*
G01X97752Y-66437D01*
G01X97742Y-66453D01*
G01X97733Y-66470D01*
G01X97727Y-66489D01*
G01X97721Y-66508D01*
G01X97719Y-66528D01*
G01X97718Y-66548D01*
G01X97751D01*
G01X97752Y-66531D01*
G01X97754Y-66514D01*
G01X97759Y-66499D01*
G01X97764Y-66483D01*
G01X97771Y-66469D01*
G01X97779Y-66455D01*
G01X97789Y-66442D01*
G01X97800Y-66431D01*
G01X97811Y-66420D01*
G01X97824Y-66410D01*
G01X97838Y-66402D01*
G01X97852Y-66395D01*
G01X97868Y-66390D01*
G01X97883Y-66385D01*
G01X97900Y-66383D01*
G01X97917Y-66382D01*
G01X97934Y-66383D01*
G01X97951Y-66385D01*
G01X97966Y-66390D01*
G01X97982Y-66395D01*
G01X97996Y-66402D01*
G01X98010Y-66410D01*
G01X98023Y-66420D01*
G01X98034Y-66431D01*
G01X98045Y-66442D01*
G01X98055Y-66455D01*
G01X98063Y-66469D01*
G01X98070Y-66483D01*
G01X98075Y-66499D01*
G01X98080Y-66514D01*
G01X98082Y-66531D01*
G01X98083Y-66548D01*
G01X98082Y-66565D01*
G01X98080Y-66582D01*
G01X98075Y-66597D01*
G01X98070Y-66613D01*
G01X98063Y-66627D01*
G01X98055Y-66641D01*
G01X98045Y-66654D01*
G01X98034Y-66665D01*
G01X98023Y-66676D01*
G01X98010Y-66686D01*
G01X97996Y-66694D01*
G01X97982Y-66701D01*
G01X97966Y-66706D01*
G01X97951Y-66711D01*
G01X97934Y-66713D01*
G01X97917Y-66714D01*
G01X97900Y-66713D01*
G01X97883Y-66711D01*
G01X97868Y-66706D01*
G01X97852Y-66701D01*
G01X97838Y-66694D01*
G01X97824Y-66686D01*
G01X97811Y-66676D01*
G01X97800Y-66665D01*
G01X97789Y-66654D01*
G01X97779Y-66641D01*
G01X97771Y-66627D01*
G01X97764Y-66613D01*
G01X97759Y-66597D01*
G01X97754Y-66582D01*
G01X97752Y-66565D01*
G01X97751Y-66548D01*
G01X97718D01*
G01X97719Y-66568D01*
G01X97721Y-66588D01*
G01X97727Y-66607D01*
G01X97733Y-66626D01*
G01X97742Y-66643D01*
G01X97752Y-66659D01*
G01X97763Y-66675D01*
G01X97776Y-66689D01*
G01X97790Y-66702D01*
G01X97806Y-66713D01*
G01X97822Y-66723D01*
G01X97839Y-66732D01*
G01X97858Y-66738D01*
G01X97877Y-66744D01*
G01X97897Y-66746D01*
G01X97917Y-66747D01*
G01X97937Y-66746D01*
G01X97957Y-66744D01*
G01X97976Y-66738D01*
G01X97995Y-66732D01*
G01X98012Y-66723D01*
G01X98028Y-66713D01*
G01X98044Y-66702D01*
G01X98058Y-66689D01*
G01X98071Y-66675D01*
G01X98082Y-66659D01*
G01X98092Y-66643D01*
G01X98101Y-66626D01*
G01X98108Y-66607D01*
G01X98113Y-66588D01*
G01X98115Y-66568D01*
G01X98117Y-66548D01*
G01X98115Y-66528D01*
G01X98113Y-66508D01*
G01X98108Y-66489D01*
G01X98101Y-66470D01*
G01X98092Y-66453D01*
G01X98082Y-66437D01*
G01X98071Y-66421D01*
G01X98058Y-66407D01*
G01X98044Y-66394D01*
G01X98028Y-66383D01*
G01X98012Y-66373D01*
G01X97995Y-66364D01*
G01X97976Y-66357D01*
G01X97957Y-66352D01*
G01X97937Y-66350D01*
G37*
G36*
G01X95377Y-66348D02*
G01X95357Y-66350D01*
G01X95337Y-66352D01*
G01X95318Y-66357D01*
G01X95299Y-66364D01*
G01X95282Y-66373D01*
G01X95266Y-66383D01*
G01X95250Y-66394D01*
G01X95236Y-66407D01*
G01X95223Y-66421D01*
G01X95212Y-66437D01*
G01X95202Y-66453D01*
G01X95193Y-66470D01*
G01X95187Y-66489D01*
G01X95181Y-66508D01*
G01X95179Y-66528D01*
G01X95178Y-66548D01*
G01X95211D01*
G01X95212Y-66531D01*
G01X95214Y-66514D01*
G01X95219Y-66499D01*
G01X95224Y-66483D01*
G01X95231Y-66469D01*
G01X95239Y-66455D01*
G01X95249Y-66442D01*
G01X95260Y-66431D01*
G01X95271Y-66420D01*
G01X95284Y-66410D01*
G01X95298Y-66402D01*
G01X95312Y-66395D01*
G01X95328Y-66390D01*
G01X95343Y-66385D01*
G01X95360Y-66383D01*
G01X95377Y-66382D01*
G01X95394Y-66383D01*
G01X95411Y-66385D01*
G01X95426Y-66390D01*
G01X95442Y-66395D01*
G01X95456Y-66402D01*
G01X95470Y-66410D01*
G01X95483Y-66420D01*
G01X95494Y-66431D01*
G01X95505Y-66442D01*
G01X95515Y-66455D01*
G01X95523Y-66469D01*
G01X95530Y-66483D01*
G01X95535Y-66499D01*
G01X95540Y-66514D01*
G01X95542Y-66531D01*
G01X95543Y-66548D01*
G01X95542Y-66565D01*
G01X95540Y-66582D01*
G01X95535Y-66597D01*
G01X95530Y-66613D01*
G01X95523Y-66627D01*
G01X95515Y-66641D01*
G01X95505Y-66654D01*
G01X95494Y-66665D01*
G01X95483Y-66676D01*
G01X95470Y-66686D01*
G01X95456Y-66694D01*
G01X95442Y-66701D01*
G01X95426Y-66706D01*
G01X95411Y-66711D01*
G01X95394Y-66713D01*
G01X95377Y-66714D01*
G01X95360Y-66713D01*
G01X95343Y-66711D01*
G01X95328Y-66706D01*
G01X95312Y-66701D01*
G01X95298Y-66694D01*
G01X95284Y-66686D01*
G01X95271Y-66676D01*
G01X95260Y-66665D01*
G01X95249Y-66654D01*
G01X95239Y-66641D01*
G01X95231Y-66627D01*
G01X95224Y-66613D01*
G01X95219Y-66597D01*
G01X95214Y-66582D01*
G01X95212Y-66565D01*
G01X95211Y-66548D01*
G01X95178D01*
G01X95179Y-66568D01*
G01X95181Y-66588D01*
G01X95187Y-66607D01*
G01X95193Y-66626D01*
G01X95202Y-66643D01*
G01X95212Y-66659D01*
G01X95223Y-66675D01*
G01X95236Y-66689D01*
G01X95250Y-66702D01*
G01X95266Y-66713D01*
G01X95282Y-66723D01*
G01X95299Y-66732D01*
G01X95318Y-66738D01*
G01X95337Y-66744D01*
G01X95357Y-66746D01*
G01X95377Y-66747D01*
G01X95397Y-66746D01*
G01X95417Y-66744D01*
G01X95436Y-66738D01*
G01X95455Y-66732D01*
G01X95472Y-66723D01*
G01X95488Y-66713D01*
G01X95504Y-66702D01*
G01X95518Y-66689D01*
G01X95531Y-66675D01*
G01X95542Y-66659D01*
G01X95552Y-66643D01*
G01X95561Y-66626D01*
G01X95568Y-66607D01*
G01X95573Y-66588D01*
G01X95575Y-66568D01*
G01X95577Y-66548D01*
G01X95575Y-66528D01*
G01X95573Y-66508D01*
G01X95568Y-66489D01*
G01X95561Y-66470D01*
G01X95552Y-66453D01*
G01X95542Y-66437D01*
G01X95531Y-66421D01*
G01X95518Y-66407D01*
G01X95504Y-66394D01*
G01X95488Y-66383D01*
G01X95472Y-66373D01*
G01X95455Y-66364D01*
G01X95436Y-66357D01*
G01X95417Y-66352D01*
G01X95397Y-66350D01*
G37*
G36*
G01X92837Y-66348D02*
G01X92817Y-66350D01*
G01X92797Y-66352D01*
G01X92778Y-66357D01*
G01X92759Y-66364D01*
G01X92742Y-66373D01*
G01X92726Y-66383D01*
G01X92710Y-66394D01*
G01X92696Y-66407D01*
G01X92683Y-66421D01*
G01X92672Y-66437D01*
G01X92662Y-66453D01*
G01X92653Y-66470D01*
G01X92647Y-66489D01*
G01X92641Y-66508D01*
G01X92639Y-66528D01*
G01X92638Y-66548D01*
G01X92671D01*
G01X92672Y-66531D01*
G01X92674Y-66514D01*
G01X92679Y-66499D01*
G01X92684Y-66483D01*
G01X92691Y-66469D01*
G01X92699Y-66455D01*
G01X92709Y-66442D01*
G01X92720Y-66431D01*
G01X92731Y-66420D01*
G01X92744Y-66410D01*
G01X92758Y-66402D01*
G01X92772Y-66395D01*
G01X92788Y-66390D01*
G01X92803Y-66385D01*
G01X92820Y-66383D01*
G01X92837Y-66382D01*
G01X92854Y-66383D01*
G01X92871Y-66385D01*
G01X92886Y-66390D01*
G01X92902Y-66395D01*
G01X92916Y-66402D01*
G01X92930Y-66410D01*
G01X92943Y-66420D01*
G01X92954Y-66431D01*
G01X92965Y-66442D01*
G01X92975Y-66455D01*
G01X92983Y-66469D01*
G01X92990Y-66483D01*
G01X92995Y-66499D01*
G01X93000Y-66514D01*
G01X93002Y-66531D01*
G01X93003Y-66548D01*
G01X93002Y-66565D01*
G01X93000Y-66582D01*
G01X92995Y-66597D01*
G01X92990Y-66613D01*
G01X92983Y-66627D01*
G01X92975Y-66641D01*
G01X92965Y-66654D01*
G01X92954Y-66665D01*
G01X92943Y-66676D01*
G01X92930Y-66686D01*
G01X92916Y-66694D01*
G01X92902Y-66701D01*
G01X92886Y-66706D01*
G01X92871Y-66711D01*
G01X92854Y-66713D01*
G01X92837Y-66714D01*
G01X92820Y-66713D01*
G01X92803Y-66711D01*
G01X92788Y-66706D01*
G01X92772Y-66701D01*
G01X92758Y-66694D01*
G01X92744Y-66686D01*
G01X92731Y-66676D01*
G01X92720Y-66665D01*
G01X92709Y-66654D01*
G01X92699Y-66641D01*
G01X92691Y-66627D01*
G01X92684Y-66613D01*
G01X92679Y-66597D01*
G01X92674Y-66582D01*
G01X92672Y-66565D01*
G01X92671Y-66548D01*
G01X92638D01*
G01X92639Y-66568D01*
G01X92641Y-66588D01*
G01X92647Y-66607D01*
G01X92653Y-66626D01*
G01X92662Y-66643D01*
G01X92672Y-66659D01*
G01X92683Y-66675D01*
G01X92696Y-66689D01*
G01X92710Y-66702D01*
G01X92726Y-66713D01*
G01X92742Y-66723D01*
G01X92759Y-66732D01*
G01X92778Y-66738D01*
G01X92797Y-66744D01*
G01X92817Y-66746D01*
G01X92837Y-66747D01*
G01X92857Y-66746D01*
G01X92877Y-66744D01*
G01X92896Y-66738D01*
G01X92915Y-66732D01*
G01X92932Y-66723D01*
G01X92948Y-66713D01*
G01X92964Y-66702D01*
G01X92978Y-66689D01*
G01X92991Y-66675D01*
G01X93002Y-66659D01*
G01X93012Y-66643D01*
G01X93021Y-66626D01*
G01X93028Y-66607D01*
G01X93033Y-66588D01*
G01X93035Y-66568D01*
G01X93037Y-66548D01*
G01X93035Y-66528D01*
G01X93033Y-66508D01*
G01X93028Y-66489D01*
G01X93021Y-66470D01*
G01X93012Y-66453D01*
G01X93002Y-66437D01*
G01X92991Y-66421D01*
G01X92978Y-66407D01*
G01X92964Y-66394D01*
G01X92948Y-66383D01*
G01X92932Y-66373D01*
G01X92915Y-66364D01*
G01X92896Y-66357D01*
G01X92877Y-66352D01*
G01X92857Y-66350D01*
G37*
G36*
G01X90297Y-66348D02*
G01X90277Y-66350D01*
G01X90257Y-66352D01*
G01X90238Y-66357D01*
G01X90219Y-66364D01*
G01X90202Y-66373D01*
G01X90186Y-66383D01*
G01X90170Y-66394D01*
G01X90156Y-66407D01*
G01X90143Y-66421D01*
G01X90132Y-66437D01*
G01X90122Y-66453D01*
G01X90113Y-66470D01*
G01X90107Y-66489D01*
G01X90101Y-66508D01*
G01X90099Y-66528D01*
G01X90098Y-66548D01*
G01X90131D01*
G01X90132Y-66531D01*
G01X90134Y-66514D01*
G01X90139Y-66499D01*
G01X90144Y-66483D01*
G01X90151Y-66469D01*
G01X90159Y-66455D01*
G01X90169Y-66442D01*
G01X90180Y-66431D01*
G01X90191Y-66420D01*
G01X90204Y-66410D01*
G01X90218Y-66402D01*
G01X90232Y-66395D01*
G01X90248Y-66390D01*
G01X90263Y-66385D01*
G01X90280Y-66383D01*
G01X90297Y-66382D01*
G01X90314Y-66383D01*
G01X90331Y-66385D01*
G01X90346Y-66390D01*
G01X90362Y-66395D01*
G01X90376Y-66402D01*
G01X90390Y-66410D01*
G01X90403Y-66420D01*
G01X90414Y-66431D01*
G01X90425Y-66442D01*
G01X90435Y-66455D01*
G01X90443Y-66469D01*
G01X90450Y-66483D01*
G01X90455Y-66499D01*
G01X90460Y-66514D01*
G01X90462Y-66531D01*
G01X90463Y-66548D01*
G01X90462Y-66565D01*
G01X90460Y-66582D01*
G01X90455Y-66597D01*
G01X90450Y-66613D01*
G01X90443Y-66627D01*
G01X90435Y-66641D01*
G01X90425Y-66654D01*
G01X90414Y-66665D01*
G01X90403Y-66676D01*
G01X90390Y-66686D01*
G01X90376Y-66694D01*
G01X90362Y-66701D01*
G01X90346Y-66706D01*
G01X90331Y-66711D01*
G01X90314Y-66713D01*
G01X90297Y-66714D01*
G01X90280Y-66713D01*
G01X90263Y-66711D01*
G01X90248Y-66706D01*
G01X90232Y-66701D01*
G01X90218Y-66694D01*
G01X90204Y-66686D01*
G01X90191Y-66676D01*
G01X90180Y-66665D01*
G01X90169Y-66654D01*
G01X90159Y-66641D01*
G01X90151Y-66627D01*
G01X90144Y-66613D01*
G01X90139Y-66597D01*
G01X90134Y-66582D01*
G01X90132Y-66565D01*
G01X90131Y-66548D01*
G01X90098D01*
G01X90099Y-66568D01*
G01X90101Y-66588D01*
G01X90107Y-66607D01*
G01X90113Y-66626D01*
G01X90122Y-66643D01*
G01X90132Y-66659D01*
G01X90143Y-66675D01*
G01X90156Y-66689D01*
G01X90170Y-66702D01*
G01X90186Y-66713D01*
G01X90202Y-66723D01*
G01X90219Y-66732D01*
G01X90238Y-66738D01*
G01X90257Y-66744D01*
G01X90277Y-66746D01*
G01X90297Y-66747D01*
G01X90317Y-66746D01*
G01X90337Y-66744D01*
G01X90356Y-66738D01*
G01X90375Y-66732D01*
G01X90392Y-66723D01*
G01X90408Y-66713D01*
G01X90424Y-66702D01*
G01X90438Y-66689D01*
G01X90451Y-66675D01*
G01X90462Y-66659D01*
G01X90472Y-66643D01*
G01X90481Y-66626D01*
G01X90488Y-66607D01*
G01X90493Y-66588D01*
G01X90495Y-66568D01*
G01X90497Y-66548D01*
G01X90495Y-66528D01*
G01X90493Y-66508D01*
G01X90488Y-66489D01*
G01X90481Y-66470D01*
G01X90472Y-66453D01*
G01X90462Y-66437D01*
G01X90451Y-66421D01*
G01X90438Y-66407D01*
G01X90424Y-66394D01*
G01X90408Y-66383D01*
G01X90392Y-66373D01*
G01X90375Y-66364D01*
G01X90356Y-66357D01*
G01X90337Y-66352D01*
G01X90317Y-66350D01*
G37*
G36*
G01X87757Y-66348D02*
G01X87737Y-66350D01*
G01X87717Y-66352D01*
G01X87698Y-66357D01*
G01X87679Y-66364D01*
G01X87662Y-66373D01*
G01X87646Y-66383D01*
G01X87630Y-66394D01*
G01X87616Y-66407D01*
G01X87603Y-66421D01*
G01X87592Y-66437D01*
G01X87582Y-66453D01*
G01X87573Y-66470D01*
G01X87567Y-66489D01*
G01X87561Y-66508D01*
G01X87559Y-66528D01*
G01X87558Y-66548D01*
G01X87591D01*
G01X87592Y-66531D01*
G01X87594Y-66514D01*
G01X87599Y-66499D01*
G01X87604Y-66483D01*
G01X87611Y-66469D01*
G01X87619Y-66455D01*
G01X87629Y-66442D01*
G01X87640Y-66431D01*
G01X87651Y-66420D01*
G01X87664Y-66410D01*
G01X87678Y-66402D01*
G01X87692Y-66395D01*
G01X87708Y-66390D01*
G01X87723Y-66385D01*
G01X87740Y-66383D01*
G01X87757Y-66382D01*
G01X87774Y-66383D01*
G01X87791Y-66385D01*
G01X87806Y-66390D01*
G01X87822Y-66395D01*
G01X87836Y-66402D01*
G01X87850Y-66410D01*
G01X87863Y-66420D01*
G01X87874Y-66431D01*
G01X87885Y-66442D01*
G01X87895Y-66455D01*
G01X87903Y-66469D01*
G01X87910Y-66483D01*
G01X87915Y-66499D01*
G01X87920Y-66514D01*
G01X87922Y-66531D01*
G01X87923Y-66548D01*
G01X87922Y-66565D01*
G01X87920Y-66582D01*
G01X87915Y-66597D01*
G01X87910Y-66613D01*
G01X87903Y-66627D01*
G01X87895Y-66641D01*
G01X87885Y-66654D01*
G01X87874Y-66665D01*
G01X87863Y-66676D01*
G01X87850Y-66686D01*
G01X87836Y-66694D01*
G01X87822Y-66701D01*
G01X87806Y-66706D01*
G01X87791Y-66711D01*
G01X87774Y-66713D01*
G01X87757Y-66714D01*
G01X87740Y-66713D01*
G01X87723Y-66711D01*
G01X87708Y-66706D01*
G01X87692Y-66701D01*
G01X87678Y-66694D01*
G01X87664Y-66686D01*
G01X87651Y-66676D01*
G01X87640Y-66665D01*
G01X87629Y-66654D01*
G01X87619Y-66641D01*
G01X87611Y-66627D01*
G01X87604Y-66613D01*
G01X87599Y-66597D01*
G01X87594Y-66582D01*
G01X87592Y-66565D01*
G01X87591Y-66548D01*
G01X87558D01*
G01X87559Y-66568D01*
G01X87561Y-66588D01*
G01X87567Y-66607D01*
G01X87573Y-66626D01*
G01X87582Y-66643D01*
G01X87592Y-66659D01*
G01X87603Y-66675D01*
G01X87616Y-66689D01*
G01X87630Y-66702D01*
G01X87646Y-66713D01*
G01X87662Y-66723D01*
G01X87679Y-66732D01*
G01X87698Y-66738D01*
G01X87717Y-66744D01*
G01X87737Y-66746D01*
G01X87757Y-66747D01*
G01X87777Y-66746D01*
G01X87797Y-66744D01*
G01X87816Y-66738D01*
G01X87835Y-66732D01*
G01X87852Y-66723D01*
G01X87868Y-66713D01*
G01X87884Y-66702D01*
G01X87898Y-66689D01*
G01X87911Y-66675D01*
G01X87922Y-66659D01*
G01X87932Y-66643D01*
G01X87941Y-66626D01*
G01X87948Y-66607D01*
G01X87953Y-66588D01*
G01X87955Y-66568D01*
G01X87957Y-66548D01*
G01X87955Y-66528D01*
G01X87953Y-66508D01*
G01X87948Y-66489D01*
G01X87941Y-66470D01*
G01X87932Y-66453D01*
G01X87922Y-66437D01*
G01X87911Y-66421D01*
G01X87898Y-66407D01*
G01X87884Y-66394D01*
G01X87868Y-66383D01*
G01X87852Y-66373D01*
G01X87835Y-66364D01*
G01X87816Y-66357D01*
G01X87797Y-66352D01*
G01X87777Y-66350D01*
G37*
G36*
G01X85217Y-66348D02*
G01X85197Y-66350D01*
G01X85177Y-66352D01*
G01X85158Y-66357D01*
G01X85139Y-66364D01*
G01X85122Y-66373D01*
G01X85106Y-66383D01*
G01X85090Y-66394D01*
G01X85076Y-66407D01*
G01X85063Y-66421D01*
G01X85052Y-66437D01*
G01X85042Y-66453D01*
G01X85033Y-66470D01*
G01X85027Y-66489D01*
G01X85021Y-66508D01*
G01X85019Y-66528D01*
G01X85018Y-66548D01*
G01X85051D01*
G01X85052Y-66531D01*
G01X85054Y-66514D01*
G01X85059Y-66499D01*
G01X85064Y-66483D01*
G01X85071Y-66469D01*
G01X85079Y-66455D01*
G01X85089Y-66442D01*
G01X85100Y-66431D01*
G01X85111Y-66420D01*
G01X85124Y-66410D01*
G01X85138Y-66402D01*
G01X85152Y-66395D01*
G01X85168Y-66390D01*
G01X85183Y-66385D01*
G01X85200Y-66383D01*
G01X85217Y-66382D01*
G01X85234Y-66383D01*
G01X85251Y-66385D01*
G01X85266Y-66390D01*
G01X85282Y-66395D01*
G01X85296Y-66402D01*
G01X85310Y-66410D01*
G01X85323Y-66420D01*
G01X85334Y-66431D01*
G01X85345Y-66442D01*
G01X85355Y-66455D01*
G01X85363Y-66469D01*
G01X85370Y-66483D01*
G01X85375Y-66499D01*
G01X85380Y-66514D01*
G01X85382Y-66531D01*
G01X85383Y-66548D01*
G01X85382Y-66565D01*
G01X85380Y-66582D01*
G01X85375Y-66597D01*
G01X85370Y-66613D01*
G01X85363Y-66627D01*
G01X85355Y-66641D01*
G01X85345Y-66654D01*
G01X85334Y-66665D01*
G01X85323Y-66676D01*
G01X85310Y-66686D01*
G01X85296Y-66694D01*
G01X85282Y-66701D01*
G01X85266Y-66706D01*
G01X85251Y-66711D01*
G01X85234Y-66713D01*
G01X85217Y-66714D01*
G01X85200Y-66713D01*
G01X85183Y-66711D01*
G01X85168Y-66706D01*
G01X85152Y-66701D01*
G01X85138Y-66694D01*
G01X85124Y-66686D01*
G01X85111Y-66676D01*
G01X85100Y-66665D01*
G01X85089Y-66654D01*
G01X85079Y-66641D01*
G01X85071Y-66627D01*
G01X85064Y-66613D01*
G01X85059Y-66597D01*
G01X85054Y-66582D01*
G01X85052Y-66565D01*
G01X85051Y-66548D01*
G01X85018D01*
G01X85019Y-66568D01*
G01X85021Y-66588D01*
G01X85027Y-66607D01*
G01X85033Y-66626D01*
G01X85042Y-66643D01*
G01X85052Y-66659D01*
G01X85063Y-66675D01*
G01X85076Y-66689D01*
G01X85090Y-66702D01*
G01X85106Y-66713D01*
G01X85122Y-66723D01*
G01X85139Y-66732D01*
G01X85158Y-66738D01*
G01X85177Y-66744D01*
G01X85197Y-66746D01*
G01X85217Y-66747D01*
G01X85237Y-66746D01*
G01X85257Y-66744D01*
G01X85276Y-66738D01*
G01X85295Y-66732D01*
G01X85312Y-66723D01*
G01X85328Y-66713D01*
G01X85344Y-66702D01*
G01X85358Y-66689D01*
G01X85371Y-66675D01*
G01X85382Y-66659D01*
G01X85392Y-66643D01*
G01X85401Y-66626D01*
G01X85408Y-66607D01*
G01X85413Y-66588D01*
G01X85415Y-66568D01*
G01X85417Y-66548D01*
G01X85415Y-66528D01*
G01X85413Y-66508D01*
G01X85408Y-66489D01*
G01X85401Y-66470D01*
G01X85392Y-66453D01*
G01X85382Y-66437D01*
G01X85371Y-66421D01*
G01X85358Y-66407D01*
G01X85344Y-66394D01*
G01X85328Y-66383D01*
G01X85312Y-66373D01*
G01X85295Y-66364D01*
G01X85276Y-66357D01*
G01X85257Y-66352D01*
G01X85237Y-66350D01*
G37*
G36*
G01X82677Y-66348D02*
G01X82657Y-66350D01*
G01X82637Y-66352D01*
G01X82618Y-66357D01*
G01X82599Y-66364D01*
G01X82582Y-66373D01*
G01X82566Y-66383D01*
G01X82550Y-66394D01*
G01X82536Y-66407D01*
G01X82523Y-66421D01*
G01X82512Y-66437D01*
G01X82502Y-66453D01*
G01X82493Y-66470D01*
G01X82487Y-66489D01*
G01X82481Y-66508D01*
G01X82479Y-66528D01*
G01X82478Y-66548D01*
G01X82511D01*
G01X82512Y-66531D01*
G01X82514Y-66514D01*
G01X82519Y-66499D01*
G01X82524Y-66483D01*
G01X82531Y-66469D01*
G01X82539Y-66455D01*
G01X82549Y-66442D01*
G01X82560Y-66431D01*
G01X82571Y-66420D01*
G01X82584Y-66410D01*
G01X82598Y-66402D01*
G01X82612Y-66395D01*
G01X82628Y-66390D01*
G01X82643Y-66385D01*
G01X82660Y-66383D01*
G01X82677Y-66382D01*
G01X82694Y-66383D01*
G01X82711Y-66385D01*
G01X82726Y-66390D01*
G01X82742Y-66395D01*
G01X82756Y-66402D01*
G01X82770Y-66410D01*
G01X82783Y-66420D01*
G01X82794Y-66431D01*
G01X82805Y-66442D01*
G01X82815Y-66455D01*
G01X82823Y-66469D01*
G01X82830Y-66483D01*
G01X82835Y-66499D01*
G01X82840Y-66514D01*
G01X82842Y-66531D01*
G01X82843Y-66548D01*
G01X82842Y-66565D01*
G01X82840Y-66582D01*
G01X82835Y-66597D01*
G01X82830Y-66613D01*
G01X82823Y-66627D01*
G01X82815Y-66641D01*
G01X82805Y-66654D01*
G01X82794Y-66665D01*
G01X82783Y-66676D01*
G01X82770Y-66686D01*
G01X82756Y-66694D01*
G01X82742Y-66701D01*
G01X82726Y-66706D01*
G01X82711Y-66711D01*
G01X82694Y-66713D01*
G01X82677Y-66714D01*
G01X82660Y-66713D01*
G01X82643Y-66711D01*
G01X82628Y-66706D01*
G01X82612Y-66701D01*
G01X82598Y-66694D01*
G01X82584Y-66686D01*
G01X82571Y-66676D01*
G01X82560Y-66665D01*
G01X82549Y-66654D01*
G01X82539Y-66641D01*
G01X82531Y-66627D01*
G01X82524Y-66613D01*
G01X82519Y-66597D01*
G01X82514Y-66582D01*
G01X82512Y-66565D01*
G01X82511Y-66548D01*
G01X82478D01*
G01X82479Y-66568D01*
G01X82481Y-66588D01*
G01X82487Y-66607D01*
G01X82493Y-66626D01*
G01X82502Y-66643D01*
G01X82512Y-66659D01*
G01X82523Y-66675D01*
G01X82536Y-66689D01*
G01X82550Y-66702D01*
G01X82566Y-66713D01*
G01X82582Y-66723D01*
G01X82599Y-66732D01*
G01X82618Y-66738D01*
G01X82637Y-66744D01*
G01X82657Y-66746D01*
G01X82677Y-66747D01*
G01X82697Y-66746D01*
G01X82717Y-66744D01*
G01X82736Y-66738D01*
G01X82755Y-66732D01*
G01X82772Y-66723D01*
G01X82788Y-66713D01*
G01X82804Y-66702D01*
G01X82818Y-66689D01*
G01X82831Y-66675D01*
G01X82842Y-66659D01*
G01X82852Y-66643D01*
G01X82861Y-66626D01*
G01X82868Y-66607D01*
G01X82873Y-66588D01*
G01X82875Y-66568D01*
G01X82877Y-66548D01*
G01X82875Y-66528D01*
G01X82873Y-66508D01*
G01X82868Y-66489D01*
G01X82861Y-66470D01*
G01X82852Y-66453D01*
G01X82842Y-66437D01*
G01X82831Y-66421D01*
G01X82818Y-66407D01*
G01X82804Y-66394D01*
G01X82788Y-66383D01*
G01X82772Y-66373D01*
G01X82755Y-66364D01*
G01X82736Y-66357D01*
G01X82717Y-66352D01*
G01X82697Y-66350D01*
G37*
G36*
G01X80137Y-66348D02*
G01X80117Y-66350D01*
G01X80097Y-66352D01*
G01X80078Y-66357D01*
G01X80059Y-66364D01*
G01X80042Y-66373D01*
G01X80026Y-66383D01*
G01X80010Y-66394D01*
G01X79996Y-66407D01*
G01X79983Y-66421D01*
G01X79972Y-66437D01*
G01X79962Y-66453D01*
G01X79953Y-66470D01*
G01X79947Y-66489D01*
G01X79941Y-66508D01*
G01X79939Y-66528D01*
G01X79938Y-66548D01*
G01X79971D01*
G01X79972Y-66531D01*
G01X79974Y-66514D01*
G01X79979Y-66499D01*
G01X79984Y-66483D01*
G01X79991Y-66469D01*
G01X79999Y-66455D01*
G01X80009Y-66442D01*
G01X80020Y-66431D01*
G01X80031Y-66420D01*
G01X80044Y-66410D01*
G01X80058Y-66402D01*
G01X80072Y-66395D01*
G01X80088Y-66390D01*
G01X80103Y-66385D01*
G01X80120Y-66383D01*
G01X80137Y-66382D01*
G01X80154Y-66383D01*
G01X80171Y-66385D01*
G01X80186Y-66390D01*
G01X80202Y-66395D01*
G01X80216Y-66402D01*
G01X80230Y-66410D01*
G01X80243Y-66420D01*
G01X80254Y-66431D01*
G01X80265Y-66442D01*
G01X80275Y-66455D01*
G01X80283Y-66469D01*
G01X80290Y-66483D01*
G01X80295Y-66499D01*
G01X80300Y-66514D01*
G01X80302Y-66531D01*
G01X80303Y-66548D01*
G01X80302Y-66565D01*
G01X80300Y-66582D01*
G01X80295Y-66597D01*
G01X80290Y-66613D01*
G01X80283Y-66627D01*
G01X80275Y-66641D01*
G01X80265Y-66654D01*
G01X80254Y-66665D01*
G01X80243Y-66676D01*
G01X80230Y-66686D01*
G01X80216Y-66694D01*
G01X80202Y-66701D01*
G01X80186Y-66706D01*
G01X80171Y-66711D01*
G01X80154Y-66713D01*
G01X80137Y-66714D01*
G01X80120Y-66713D01*
G01X80103Y-66711D01*
G01X80088Y-66706D01*
G01X80072Y-66701D01*
G01X80058Y-66694D01*
G01X80044Y-66686D01*
G01X80031Y-66676D01*
G01X80020Y-66665D01*
G01X80009Y-66654D01*
G01X79999Y-66641D01*
G01X79991Y-66627D01*
G01X79984Y-66613D01*
G01X79979Y-66597D01*
G01X79974Y-66582D01*
G01X79972Y-66565D01*
G01X79971Y-66548D01*
G01X79938D01*
G01X79939Y-66568D01*
G01X79941Y-66588D01*
G01X79947Y-66607D01*
G01X79953Y-66626D01*
G01X79962Y-66643D01*
G01X79972Y-66659D01*
G01X79983Y-66675D01*
G01X79996Y-66689D01*
G01X80010Y-66702D01*
G01X80026Y-66713D01*
G01X80042Y-66723D01*
G01X80059Y-66732D01*
G01X80078Y-66738D01*
G01X80097Y-66744D01*
G01X80117Y-66746D01*
G01X80137Y-66747D01*
G01X80157Y-66746D01*
G01X80177Y-66744D01*
G01X80196Y-66738D01*
G01X80215Y-66732D01*
G01X80232Y-66723D01*
G01X80248Y-66713D01*
G01X80264Y-66702D01*
G01X80278Y-66689D01*
G01X80291Y-66675D01*
G01X80302Y-66659D01*
G01X80312Y-66643D01*
G01X80321Y-66626D01*
G01X80328Y-66607D01*
G01X80333Y-66588D01*
G01X80335Y-66568D01*
G01X80337Y-66548D01*
G01X80335Y-66528D01*
G01X80333Y-66508D01*
G01X80328Y-66489D01*
G01X80321Y-66470D01*
G01X80312Y-66453D01*
G01X80302Y-66437D01*
G01X80291Y-66421D01*
G01X80278Y-66407D01*
G01X80264Y-66394D01*
G01X80248Y-66383D01*
G01X80232Y-66373D01*
G01X80215Y-66364D01*
G01X80196Y-66357D01*
G01X80177Y-66352D01*
G01X80157Y-66350D01*
G37*
G36*
G01X12119Y-68280D02*
G01X12139Y-68314D01*
G01X12177D01*
G01X12461D01*
G01X12390Y-68436D01*
G01X12319Y-68559D01*
G01X12248Y-68436D01*
G01X12177Y-68314D01*
G01X12139D01*
G01X12219Y-68453D01*
G01X12319Y-68626D01*
G01X12419Y-68453D01*
G01X12519Y-68280D01*
G37*
G36*
G01X14659Y-68280D02*
G01X14679Y-68314D01*
G01X14717D01*
G01X15001D01*
G01X14930Y-68436D01*
G01X14859Y-68559D01*
G01X14788Y-68436D01*
G01X14717Y-68314D01*
G01X14679D01*
G01X14759Y-68453D01*
G01X14859Y-68626D01*
G01X14959Y-68453D01*
G01X15059Y-68280D01*
G37*
G36*
G01X23878Y-75124D02*
G01X23896Y-75157D01*
G01X23935D01*
G01X24219D01*
G01X24148Y-75280D01*
G01X24077Y-75402D01*
G01X23935Y-75157D01*
G01X23896D01*
G01X23977Y-75296D01*
G01X24077Y-75468D01*
G01X24177Y-75296D01*
G01X24276Y-75124D01*
G37*
G36*
G01X23878Y-78123D02*
G01X23897Y-78157D01*
G01X23935D01*
G01X24219D01*
G01X24148Y-78279D01*
G01X24077Y-78402D01*
G01X24006Y-78279D01*
G01X23935Y-78157D01*
G01X23897D01*
G01X23977Y-78296D01*
G01X24077Y-78469D01*
G01X24276Y-78123D01*
G37*
G36*
G01X23878Y-86123D02*
G01X23897Y-86157D01*
G01X23935D01*
G01X24219D01*
G01X24148Y-86279D01*
G01X24077Y-86402D01*
G01X24006Y-86279D01*
G01X23935Y-86157D01*
G01X23897D01*
G01X23977Y-86296D01*
G01X24077Y-86469D01*
G01X24276Y-86123D01*
G37*
G36*
G01X23878Y-89124D02*
G01X23897Y-89157D01*
G01X23935D01*
G01X24219D01*
G01X24148Y-89279D01*
G01X24077Y-89402D01*
G01X23935Y-89157D01*
G01X23897D01*
G01X23977Y-89296D01*
G01X24077Y-89468D01*
G01X24177Y-89296D01*
G01X24276Y-89124D01*
G37*
G36*
G01X1378Y-75124D02*
G01X1396Y-75157D01*
G01X1435D01*
G01X1719D01*
G01X1577Y-75402D01*
G01X1506Y-75280D01*
G01X1435Y-75157D01*
G01X1396D01*
G01X1477Y-75296D01*
G01X1577Y-75468D01*
G01X1677Y-75296D01*
G01X1776Y-75124D01*
G37*
G36*
G01X1378Y-89124D02*
G01X1397Y-89157D01*
G01X1435D01*
G01X1719D01*
G01X1577Y-89402D01*
G01X1506Y-89279D01*
G01X1435Y-89157D01*
G01X1397D01*
G01X1477Y-89296D01*
G01X1577Y-89468D01*
G01X1677Y-89296D01*
G01X1776Y-89124D01*
G37*
G36*
G01X7548Y-93299D02*
G01X7567Y-93333D01*
G01X7605D01*
G01X7889D01*
G01X7818Y-93455D01*
G01X7747Y-93578D01*
G01X7676Y-93455D01*
G01X7605Y-93333D01*
G01X7567D01*
G01X7747Y-93645D01*
G01X7847Y-93472D01*
G01X7947Y-93299D01*
G37*
G36*
G01X10087Y-93299D02*
G01X10107Y-93333D01*
G01X10145D01*
G01X10429D01*
G01X10358Y-93455D01*
G01X10287Y-93578D01*
G01X10216Y-93455D01*
G01X10145Y-93333D01*
G01X10107D01*
G01X10187Y-93472D01*
G01X10287Y-93645D01*
G01X10387Y-93472D01*
G01X10487Y-93299D01*
G37*
G36*
G01X2440Y-93323D02*
G01X2459Y-93356D01*
G01X2497D01*
G01X2781D01*
G01X2710Y-93479D01*
G01X2639Y-93602D01*
G01X2568Y-93479D01*
G01X2497Y-93356D01*
G01X2459D01*
G01X2539Y-93495D01*
G01X2639Y-93668D01*
G01X2739Y-93495D01*
G01X2839Y-93323D01*
G37*
G36*
G01X4980Y-93323D02*
G01X4999Y-93356D01*
G01X5037D01*
G01X5321D01*
G01X5250Y-93479D01*
G01X5179Y-93602D01*
G01X5108Y-93479D01*
G01X5037Y-93356D01*
G01X4999D01*
G01X5079Y-93495D01*
G01X5179Y-93668D01*
G01X5279Y-93495D01*
G01X5379Y-93323D01*
G37*
G36*
G01X57912Y-67842D02*
G01X57855Y-67972D01*
G01X57713Y-67957D01*
G01X57797Y-68072D01*
G01X57744Y-68145D01*
G01X57786D01*
G01X57825Y-68092D01*
G01X57839Y-68072D01*
G01X57825Y-68052D01*
G01X57786Y-67999D01*
G01X57851Y-68006D01*
G01X57875Y-68009D01*
G01X57886Y-67986D01*
G01X57912Y-67926D01*
G01X57938Y-67986D01*
G01X57949Y-68009D01*
G01X57973Y-68006D01*
G01X58038Y-67999D01*
G01X57999Y-68052D01*
G01X57985Y-68072D01*
G01X57999Y-68092D01*
G01X58038Y-68145D01*
G01X57973Y-68138D01*
G01X57949Y-68135D01*
G01X57938Y-68158D01*
G01X57912Y-68218D01*
G01X57886Y-68158D01*
G01X57875Y-68135D01*
G01X57851Y-68138D01*
G01X57786Y-68145D01*
G01X57744D01*
G01X57713Y-68187D01*
G01X57855Y-68172D01*
G01X57912Y-68302D01*
G01X57969Y-68172D01*
G01X58112Y-68187D01*
G01X58027Y-68072D01*
G01X58112Y-67957D01*
G01X57969Y-67972D01*
G37*
G36*
G01X31623Y-76224D02*
G01X31566Y-76354D01*
G01X31424Y-76339D01*
G01X31508Y-76454D01*
G01X31455Y-76527D01*
G01X31497D01*
G01X31536Y-76474D01*
G01X31550Y-76454D01*
G01X31536Y-76434D01*
G01X31497Y-76381D01*
G01X31562Y-76388D01*
G01X31586Y-76391D01*
G01X31597Y-76368D01*
G01X31623Y-76308D01*
G01X31649Y-76368D01*
G01X31660Y-76391D01*
G01X31684Y-76388D01*
G01X31749Y-76381D01*
G01X31710Y-76434D01*
G01X31696Y-76454D01*
G01X31710Y-76474D01*
G01X31749Y-76527D01*
G01X31684Y-76520D01*
G01X31660Y-76517D01*
G01X31649Y-76540D01*
G01X31623Y-76600D01*
G01X31597Y-76540D01*
G01X31586Y-76517D01*
G01X31562Y-76520D01*
G01X31497Y-76527D01*
G01X31455D01*
G01X31424Y-76569D01*
G01X31566Y-76554D01*
G01X31623Y-76684D01*
G01X31680Y-76554D01*
G01X31823Y-76569D01*
G01X31738Y-76454D01*
G01X31823Y-76339D01*
G01X31680Y-76354D01*
G37*
G36*
G01X3810Y-66572D02*
G01X3753Y-66702D01*
G01X3611Y-66687D01*
G01X3695Y-66802D01*
G01X3642Y-66875D01*
G01X3684D01*
G01X3723Y-66822D01*
G01X3737Y-66802D01*
G01X3723Y-66782D01*
G01X3684Y-66729D01*
G01X3749Y-66736D01*
G01X3773Y-66739D01*
G01X3784Y-66716D01*
G01X3810Y-66656D01*
G01X3836Y-66716D01*
G01X3847Y-66739D01*
G01X3871Y-66736D01*
G01X3936Y-66729D01*
G01X3897Y-66782D01*
G01X3883Y-66802D01*
G01X3897Y-66822D01*
G01X3936Y-66875D01*
G01X3871Y-66868D01*
G01X3847Y-66865D01*
G01X3836Y-66888D01*
G01X3810Y-66948D01*
G01X3784Y-66888D01*
G01X3773Y-66865D01*
G01X3749Y-66868D01*
G01X3684Y-66875D01*
G01X3642D01*
G01X3611Y-66917D01*
G01X3753Y-66902D01*
G01X3810Y-67032D01*
G01X3867Y-66902D01*
G01X4010Y-66917D01*
G01X3925Y-66802D01*
G01X4010Y-66687D01*
G01X3867Y-66702D01*
G37*
G36*
G01X25527Y-66572D02*
G01X25470Y-66702D01*
G01X25328Y-66687D01*
G01X25412Y-66802D01*
G01X25359Y-66875D01*
G01X25401D01*
G01X25440Y-66822D01*
G01X25454Y-66802D01*
G01X25440Y-66782D01*
G01X25401Y-66729D01*
G01X25466Y-66736D01*
G01X25490Y-66739D01*
G01X25501Y-66716D01*
G01X25527Y-66656D01*
G01X25553Y-66716D01*
G01X25564Y-66739D01*
G01X25588Y-66736D01*
G01X25653Y-66729D01*
G01X25614Y-66782D01*
G01X25600Y-66802D01*
G01X25614Y-66822D01*
G01X25653Y-66875D01*
G01X25588Y-66868D01*
G01X25564Y-66865D01*
G01X25553Y-66888D01*
G01X25527Y-66948D01*
G01X25501Y-66888D01*
G01X25490Y-66865D01*
G01X25466Y-66868D01*
G01X25401Y-66875D01*
G01X25359D01*
G01X25328Y-66917D01*
G01X25470Y-66902D01*
G01X25527Y-67032D01*
G01X25584Y-66902D01*
G01X25727Y-66917D01*
G01X25642Y-66802D01*
G01X25727Y-66687D01*
G01X25584Y-66702D01*
G37*
G36*
G01X22098Y-76986D02*
G01X22041Y-77116D01*
G01X21899Y-77101D01*
G01X21983Y-77216D01*
G01X21930Y-77289D01*
G01X21972D01*
G01X22011Y-77236D01*
G01X22025Y-77216D01*
G01X22011Y-77196D01*
G01X21972Y-77143D01*
G01X22037Y-77150D01*
G01X22061Y-77153D01*
G01X22072Y-77130D01*
G01X22098Y-77070D01*
G01X22124Y-77130D01*
G01X22135Y-77153D01*
G01X22159Y-77150D01*
G01X22224Y-77143D01*
G01X22185Y-77196D01*
G01X22171Y-77216D01*
G01X22185Y-77236D01*
G01X22224Y-77289D01*
G01X22159Y-77282D01*
G01X22135Y-77279D01*
G01X22124Y-77302D01*
G01X22098Y-77362D01*
G01X22072Y-77302D01*
G01X22061Y-77279D01*
G01X22037Y-77282D01*
G01X21972Y-77289D01*
G01X21930D01*
G01X21899Y-77331D01*
G01X22041Y-77316D01*
G01X22098Y-77446D01*
G01X22155Y-77316D01*
G01X22298Y-77331D01*
G01X22213Y-77216D01*
G01X22298Y-77101D01*
G01X22155Y-77116D01*
G37*
G36*
G01X9906Y-91083D02*
G01X9849Y-91213D01*
G01X9706Y-91198D01*
G01X9791Y-91313D01*
G01X9737Y-91386D01*
G01X9780D01*
G01X9819Y-91333D01*
G01X9833Y-91313D01*
G01X9819Y-91293D01*
G01X9780Y-91240D01*
G01X9845Y-91247D01*
G01X9869Y-91250D01*
G01X9880Y-91227D01*
G01X9906Y-91167D01*
G01X9932Y-91227D01*
G01X9943Y-91250D01*
G01X9967Y-91247D01*
G01X10032Y-91240D01*
G01X9993Y-91293D01*
G01X9979Y-91313D01*
G01X9993Y-91333D01*
G01X10032Y-91386D01*
G01X9967Y-91379D01*
G01X9943Y-91376D01*
G01X9932Y-91399D01*
G01X9906Y-91459D01*
G01X9880Y-91399D01*
G01X9869Y-91376D01*
G01X9845Y-91379D01*
G01X9780Y-91386D01*
G01X9737D01*
G01X9706Y-91428D01*
G01X9849Y-91413D01*
G01X9906Y-91543D01*
G01X9963Y-91413D01*
G01X10106Y-91428D01*
G01X10021Y-91313D01*
G01X10106Y-91198D01*
G01X9963Y-91213D01*
G37*
G36*
G01X52832Y-76092D02*
G01X52775Y-76222D01*
G01X52633Y-76207D01*
G01X52717Y-76322D01*
G01X52663Y-76395D01*
G01X52706D01*
G01X52745Y-76342D01*
G01X52759Y-76322D01*
G01X52745Y-76302D01*
G01X52706Y-76249D01*
G01X52771Y-76256D01*
G01X52795Y-76259D01*
G01X52806Y-76236D01*
G01X52832Y-76176D01*
G01X52858Y-76236D01*
G01X52869Y-76259D01*
G01X52893Y-76256D01*
G01X52958Y-76249D01*
G01X52919Y-76302D01*
G01X52905Y-76322D01*
G01X52919Y-76342D01*
G01X52958Y-76395D01*
G01X52893Y-76388D01*
G01X52869Y-76385D01*
G01X52858Y-76408D01*
G01X52832Y-76468D01*
G01X52806Y-76408D01*
G01X52795Y-76385D01*
G01X52771Y-76388D01*
G01X52706Y-76395D01*
G01X52663D01*
G01X52633Y-76437D01*
G01X52775Y-76422D01*
G01X52832Y-76552D01*
G01X52889Y-76422D01*
G01X53032Y-76437D01*
G01X52947Y-76322D01*
G01X53032Y-76207D01*
G01X52889Y-76222D01*
G37*
G36*
G01X41783Y-87659D02*
G01X41726Y-87789D01*
G01X41584Y-87774D01*
G01X41668Y-87889D01*
G01X41615Y-87962D01*
G01X41657D01*
G01X41696Y-87909D01*
G01X41710Y-87889D01*
G01X41696Y-87869D01*
G01X41657Y-87816D01*
G01X41722Y-87823D01*
G01X41746Y-87826D01*
G01X41757Y-87803D01*
G01X41783Y-87743D01*
G01X41809Y-87803D01*
G01X41820Y-87826D01*
G01X41844Y-87823D01*
G01X41909Y-87816D01*
G01X41870Y-87869D01*
G01X41856Y-87889D01*
G01X41870Y-87909D01*
G01X41909Y-87962D01*
G01X41844Y-87955D01*
G01X41820Y-87952D01*
G01X41809Y-87975D01*
G01X41783Y-88035D01*
G01X41757Y-87975D01*
G01X41746Y-87952D01*
G01X41722Y-87955D01*
G01X41657Y-87962D01*
G01X41615D01*
G01X41584Y-88004D01*
G01X41726Y-87989D01*
G01X41783Y-88119D01*
G01X41840Y-87989D01*
G01X41983Y-88004D01*
G01X41898Y-87889D01*
G01X41983Y-87774D01*
G01X41840Y-87789D01*
G37*
G36*
G01X43053Y-87659D02*
G01X42996Y-87789D01*
G01X42854Y-87774D01*
G01X42938Y-87889D01*
G01X42885Y-87962D01*
G01X42927D01*
G01X42966Y-87909D01*
G01X42980Y-87889D01*
G01X42966Y-87869D01*
G01X42927Y-87816D01*
G01X42992Y-87823D01*
G01X43016Y-87826D01*
G01X43027Y-87803D01*
G01X43053Y-87743D01*
G01X43079Y-87803D01*
G01X43090Y-87826D01*
G01X43114Y-87823D01*
G01X43179Y-87816D01*
G01X43140Y-87869D01*
G01X43126Y-87889D01*
G01X43140Y-87909D01*
G01X43179Y-87962D01*
G01X43114Y-87955D01*
G01X43090Y-87952D01*
G01X43079Y-87975D01*
G01X43053Y-88035D01*
G01X43027Y-87975D01*
G01X43016Y-87952D01*
G01X42992Y-87955D01*
G01X42927Y-87962D01*
G01X42885D01*
G01X42854Y-88004D01*
G01X42996Y-87989D01*
G01X43053Y-88119D01*
G01X43110Y-87989D01*
G01X43253Y-88004D01*
G01X43168Y-87889D01*
G01X43253Y-87774D01*
G01X43110Y-87789D01*
G37*
G36*
G01X44323Y-87659D02*
G01X44266Y-87789D01*
G01X44124Y-87774D01*
G01X44208Y-87889D01*
G01X44155Y-87962D01*
G01X44197D01*
G01X44236Y-87909D01*
G01X44250Y-87889D01*
G01X44236Y-87869D01*
G01X44197Y-87816D01*
G01X44262Y-87823D01*
G01X44286Y-87826D01*
G01X44297Y-87803D01*
G01X44323Y-87743D01*
G01X44349Y-87803D01*
G01X44360Y-87826D01*
G01X44384Y-87823D01*
G01X44449Y-87816D01*
G01X44410Y-87869D01*
G01X44396Y-87889D01*
G01X44410Y-87909D01*
G01X44449Y-87962D01*
G01X44384Y-87955D01*
G01X44360Y-87952D01*
G01X44349Y-87975D01*
G01X44323Y-88035D01*
G01X44297Y-87975D01*
G01X44286Y-87952D01*
G01X44262Y-87955D01*
G01X44197Y-87962D01*
G01X44155D01*
G01X44124Y-88004D01*
G01X44266Y-87989D01*
G01X44323Y-88119D01*
G01X44380Y-87989D01*
G01X44523Y-88004D01*
G01X44438Y-87889D01*
G01X44523Y-87774D01*
G01X44380Y-87789D01*
G37*
G36*
G01X45593Y-87659D02*
G01X45536Y-87789D01*
G01X45394Y-87774D01*
G01X45478Y-87889D01*
G01X45425Y-87962D01*
G01X45467D01*
G01X45506Y-87909D01*
G01X45520Y-87889D01*
G01X45506Y-87869D01*
G01X45467Y-87816D01*
G01X45532Y-87823D01*
G01X45556Y-87826D01*
G01X45567Y-87803D01*
G01X45593Y-87743D01*
G01X45619Y-87803D01*
G01X45630Y-87826D01*
G01X45654Y-87823D01*
G01X45719Y-87816D01*
G01X45680Y-87869D01*
G01X45666Y-87889D01*
G01X45680Y-87909D01*
G01X45719Y-87962D01*
G01X45654Y-87955D01*
G01X45630Y-87952D01*
G01X45619Y-87975D01*
G01X45593Y-88035D01*
G01X45567Y-87975D01*
G01X45556Y-87952D01*
G01X45532Y-87955D01*
G01X45467Y-87962D01*
G01X45425D01*
G01X45394Y-88004D01*
G01X45536Y-87989D01*
G01X45593Y-88119D01*
G01X45650Y-87989D01*
G01X45793Y-88004D01*
G01X45708Y-87889D01*
G01X45793Y-87774D01*
G01X45650Y-87789D01*
G37*
G36*
G01X46863Y-87659D02*
G01X46806Y-87789D01*
G01X46664Y-87774D01*
G01X46748Y-87889D01*
G01X46695Y-87962D01*
G01X46737D01*
G01X46776Y-87909D01*
G01X46790Y-87889D01*
G01X46776Y-87869D01*
G01X46737Y-87816D01*
G01X46802Y-87823D01*
G01X46826Y-87826D01*
G01X46837Y-87803D01*
G01X46863Y-87743D01*
G01X46889Y-87803D01*
G01X46900Y-87826D01*
G01X46924Y-87823D01*
G01X46989Y-87816D01*
G01X46950Y-87869D01*
G01X46936Y-87889D01*
G01X46950Y-87909D01*
G01X46989Y-87962D01*
G01X46924Y-87955D01*
G01X46900Y-87952D01*
G01X46889Y-87975D01*
G01X46863Y-88035D01*
G01X46837Y-87975D01*
G01X46826Y-87952D01*
G01X46802Y-87955D01*
G01X46737Y-87962D01*
G01X46695D01*
G01X46664Y-88004D01*
G01X46806Y-87989D01*
G01X46863Y-88119D01*
G01X46920Y-87989D01*
G01X47063Y-88004D01*
G01X46978Y-87889D01*
G01X47063Y-87774D01*
G01X46920Y-87789D01*
G37*
G36*
G01X48133Y-87659D02*
G01X48076Y-87789D01*
G01X47934Y-87774D01*
G01X48018Y-87889D01*
G01X47965Y-87962D01*
G01X48007D01*
G01X48046Y-87909D01*
G01X48060Y-87889D01*
G01X48046Y-87869D01*
G01X48007Y-87816D01*
G01X48072Y-87823D01*
G01X48096Y-87826D01*
G01X48107Y-87803D01*
G01X48133Y-87743D01*
G01X48159Y-87803D01*
G01X48170Y-87826D01*
G01X48194Y-87823D01*
G01X48259Y-87816D01*
G01X48220Y-87869D01*
G01X48206Y-87889D01*
G01X48220Y-87909D01*
G01X48259Y-87962D01*
G01X48194Y-87955D01*
G01X48170Y-87952D01*
G01X48159Y-87975D01*
G01X48133Y-88035D01*
G01X48107Y-87975D01*
G01X48096Y-87952D01*
G01X48072Y-87955D01*
G01X48007Y-87962D01*
G01X47965D01*
G01X47934Y-88004D01*
G01X48076Y-87989D01*
G01X48133Y-88119D01*
G01X48190Y-87989D01*
G01X48333Y-88004D01*
G01X48248Y-87889D01*
G01X48333Y-87774D01*
G01X48190Y-87789D01*
G37*
G36*
G01X52832Y-77362D02*
G01X52775Y-77492D01*
G01X52633Y-77477D01*
G01X52717Y-77592D01*
G01X52663Y-77665D01*
G01X52706D01*
G01X52745Y-77612D01*
G01X52759Y-77592D01*
G01X52745Y-77572D01*
G01X52706Y-77519D01*
G01X52771Y-77526D01*
G01X52795Y-77529D01*
G01X52806Y-77506D01*
G01X52832Y-77446D01*
G01X52858Y-77506D01*
G01X52869Y-77529D01*
G01X52893Y-77526D01*
G01X52958Y-77519D01*
G01X52919Y-77572D01*
G01X52905Y-77592D01*
G01X52919Y-77612D01*
G01X52958Y-77665D01*
G01X52893Y-77658D01*
G01X52869Y-77655D01*
G01X52858Y-77678D01*
G01X52832Y-77738D01*
G01X52806Y-77678D01*
G01X52795Y-77655D01*
G01X52771Y-77658D01*
G01X52706Y-77665D01*
G01X52663D01*
G01X52633Y-77707D01*
G01X52775Y-77692D01*
G01X52832Y-77822D01*
G01X52889Y-77692D01*
G01X53032Y-77707D01*
G01X52947Y-77592D01*
G01X53032Y-77477D01*
G01X52889Y-77492D01*
G37*
G36*
G01X34798Y-91718D02*
G01X34741Y-91848D01*
G01X34599Y-91833D01*
G01X34683Y-91948D01*
G01X34630Y-92021D01*
G01X34672D01*
G01X34711Y-91968D01*
G01X34725Y-91948D01*
G01X34711Y-91928D01*
G01X34672Y-91875D01*
G01X34737Y-91882D01*
G01X34761Y-91885D01*
G01X34772Y-91862D01*
G01X34798Y-91802D01*
G01X34824Y-91862D01*
G01X34835Y-91885D01*
G01X34859Y-91882D01*
G01X34924Y-91875D01*
G01X34885Y-91928D01*
G01X34871Y-91948D01*
G01X34885Y-91968D01*
G01X34924Y-92021D01*
G01X34859Y-92014D01*
G01X34835Y-92011D01*
G01X34824Y-92034D01*
G01X34798Y-92094D01*
G01X34772Y-92034D01*
G01X34761Y-92011D01*
G01X34737Y-92014D01*
G01X34672Y-92021D01*
G01X34630D01*
G01X34599Y-92063D01*
G01X34741Y-92048D01*
G01X34798Y-92178D01*
G01X34855Y-92048D01*
G01X34998Y-92063D01*
G01X34913Y-91948D01*
G01X34998Y-91833D01*
G01X34855Y-91848D01*
G37*
G36*
G01X39751Y-87654D02*
G01X39694Y-87784D01*
G01X39552Y-87769D01*
G01X39636Y-87884D01*
G01X39583Y-87957D01*
G01X39625D01*
G01X39664Y-87904D01*
G01X39678Y-87884D01*
G01X39664Y-87864D01*
G01X39625Y-87811D01*
G01X39690Y-87818D01*
G01X39714Y-87821D01*
G01X39725Y-87798D01*
G01X39751Y-87738D01*
G01X39777Y-87798D01*
G01X39788Y-87821D01*
G01X39812Y-87818D01*
G01X39877Y-87811D01*
G01X39838Y-87864D01*
G01X39824Y-87884D01*
G01X39838Y-87904D01*
G01X39877Y-87957D01*
G01X39812Y-87950D01*
G01X39788Y-87947D01*
G01X39777Y-87970D01*
G01X39751Y-88030D01*
G01X39725Y-87970D01*
G01X39714Y-87947D01*
G01X39690Y-87950D01*
G01X39625Y-87957D01*
G01X39583D01*
G01X39552Y-87999D01*
G01X39694Y-87984D01*
G01X39751Y-88114D01*
G01X39808Y-87984D01*
G01X39951Y-87999D01*
G01X39866Y-87884D01*
G01X39951Y-87769D01*
G01X39808Y-87784D01*
G37*
G04 Image End*
G54D10*

M02*
