G04 Layer: BottomLayer*
G04 EasyEDA Pro v2.0.25.bcaee6, 2025-12-15 15:41:01*
G04 Gerber Generator version 0.3*
G04 Scale: 100 percent, Rotated: No, Reflected: No*
G04 Dimensions in millimeters*
G04 Leading zeros omitted, absolute positions, 3 integers and 3 decimals*
%FSLAX33Y33*%
%MOMM*%
%ADD10R,2.0X2.0*%
%ADD11C,2.0*%
%ADD12R,1.7X1.7*%
%ADD13C,1.7*%
%ADD14R,1.5X1.5*%
%ADD15C,1.5*%
%ADD16C,1.8*%
%ADD17C,0.61*%
%ADD18C,0.508*%
%ADD19C,0.762*%
%ADD20C,0.504*%
%ADD21C,1.0*%
G75*


G04 Tear Start*
G36*
G01X4556Y-69291D02*
G01X5459Y-69697D01*
G01X5853Y-69378D01*
G01X5548Y-68490D01*
G01X4556Y-69291D01*
G37*
G36*
G01X7186Y-69301D02*
G01X8083Y-69653D01*
G01X8439Y-69297D01*
G01X8087Y-68400D01*
G01X7186Y-69301D01*
G37*
G36*
G01X96632Y-67476D02*
G01X96989Y-67833D01*
G01X98414Y-67298D01*
G01X97167Y-66051D01*
G01X96632Y-67476D01*
G37*
G36*
G01X94628Y-66501D02*
G01X94297Y-67271D01*
G01X94654Y-67628D01*
G01X95424Y-67297D01*
G01X94628Y-66501D01*
G37*
G36*
G01X92088Y-66501D02*
G01X91757Y-67271D01*
G01X92114Y-67628D01*
G01X92884Y-67297D01*
G01X92088Y-66501D01*
G37*
G36*
G01X89548Y-66501D02*
G01X89217Y-67271D01*
G01X89574Y-67628D01*
G01X90344Y-67297D01*
G01X89548Y-66501D01*
G37*
G36*
G01X87008Y-66501D02*
G01X86677Y-67271D01*
G01X87034Y-67628D01*
G01X87804Y-67297D01*
G01X87008Y-66501D01*
G37*
G36*
G01X84468Y-66501D02*
G01X84137Y-67271D01*
G01X84494Y-67628D01*
G01X85264Y-67297D01*
G01X84468Y-66501D01*
G37*
G36*
G01X24021Y-90194D02*
G01X24805Y-90731D01*
G01X25512Y-90024D01*
G01X24975Y-89240D01*
G01X24021Y-90194D01*
G37*
G04 Tear End*

G04 Pad Start*
G54D10*
G01X12319Y-68453D03*
G54D11*
G01X14859Y-68453D03*
G54D12*
G01X2159Y-68453D03*
G54D13*
G01X4699Y-68453D03*
G01X7239Y-68453D03*
G01X9779Y-68453D03*
G54D12*
G01X51829Y-93442D03*
G54D14*
G01X97917Y-66548D03*
G54D15*
G01X95377Y-66548D03*
G01X92837Y-66548D03*
G01X90297Y-66548D03*
G01X87757Y-66548D03*
G01X85217Y-66548D03*
G01X82677Y-66548D03*
G01X80137Y-66548D03*
G54D16*
G01X24077Y-75296D03*
G01X24077Y-78296D03*
G01X24077Y-86296D03*
G01X24077Y-89296D03*
G01X1577Y-75296D03*
G01X1577Y-89296D03*
G54D10*
G01X7747Y-93472D03*
G54D11*
G01X10287Y-93472D03*
G54D10*
G01X2639Y-93496D03*
G54D11*
G01X5179Y-93496D03*
G04 Pad End*

G04 Via Start*
G54D17*
G01X57912Y-68072D03*
G01X31623Y-76454D03*
G01X3810Y-66802D03*
G01X25527Y-66802D03*
G01X22098Y-77216D03*
G01X9906Y-91313D03*
G01X52832Y-76322D03*
G01X41783Y-87889D03*
G01X43053Y-87889D03*
G01X44323Y-87889D03*
G01X45593Y-87889D03*
G01X46863Y-87889D03*
G01X48133Y-87889D03*
G01X52832Y-77592D03*
G01X34798Y-91948D03*
G01X39751Y-87884D03*
G04 Via End*

G04 Track Start*
G54D18*
G01X31623Y-76454D02*
G01X49530Y-76454D01*
G01X57912Y-68072D01*
G54D19*
G01X4572Y-66040D02*
G01X24765Y-66040D01*
G01X25527Y-66802D01*
G01X3810Y-66802D02*
G01X4572Y-66040D01*
G01X9906Y-91313D02*
G01X17653Y-83566D01*
G01X17653Y-81661D02*
G01X22098Y-77216D01*
G01X17653Y-83566D02*
G01X17653Y-81661D01*
G54D20*
G01X4699Y-68580D02*
G01X9652Y-73533D01*
G01X24765D01*
G01X30226Y-78994D01*
G01X53086D01*
G01X52832Y-76379D02*
G01X52832Y-76322D01*
G01X53086Y-78994D02*
G01X53783Y-78297D01*
G01Y-77330D01*
G01X52832Y-76379D01*
G01X4699Y-68580D02*
G01X4699Y-68453D01*
G01X48133Y-87889D02*
G01X51059Y-84963D01*
G01X79502Y-84963D02*
G01X97917Y-66548D01*
G01X51059Y-84963D02*
G01X79502Y-84963D01*
G01X46863Y-87889D02*
G01X50678Y-84074D01*
G01X77851Y-84074D02*
G01X95377Y-66548D01*
G01X50678Y-84074D02*
G01X77851Y-84074D01*
G01X45593Y-87889D02*
G01X50297Y-83185D01*
G01X76200Y-83185D02*
G01X92837Y-66548D01*
G01X50297Y-83185D02*
G01X76200Y-83185D01*
G01X44323Y-87889D02*
G01X49916Y-82296D01*
G01X74549Y-82296D02*
G01X90297Y-66548D01*
G01X49916Y-82296D02*
G01X74549Y-82296D01*
G01X43053Y-87889D02*
G01X49535Y-81407D01*
G01X72898Y-81407D02*
G01X87757Y-66548D01*
G01X49535Y-81407D02*
G01X72898Y-81407D01*
G01X41783Y-87889D02*
G01X49154Y-80518D01*
G01X71247Y-80518D02*
G01X85217Y-66548D01*
G01X49154Y-80518D02*
G01X71247Y-80518D01*
G01X7239Y-68453D02*
G01X11430Y-72644D01*
G01X29967Y-77592D02*
G01X52832Y-77592D01*
G01X11430Y-72644D02*
G01X25019Y-72644D01*
G01X29967Y-77592D01*
G54D21*
G01X24077Y-89296D02*
G01X26729Y-91948D01*
G01X34798D01*
G01X35687D01*
G01X39751Y-87884D01*
G04 Track End*

M02*
