G04 Layer: BottomSilkscreenLayer*
G04 EasyEDA Pro v2.0.25.bcaee6, 2025-12-15 15:41:01*
G04 Gerber Generator version 0.3*
G04 Scale: 100 percent, Rotated: No, Reflected: No*
G04 Dimensions in millimeters*
G04 Leading zeros omitted, absolute positions, 3 integers and 3 decimals*
%FSLAX33Y33*%
%MOMM*%
%ADD10C,0.2*%
G75*


G04 Text Start*
G04 //text: ESP32-S3-Ink-Display*
G04 v1.0*
G04 Donald*
G54D10*
G01X97056Y-87925D02*
G01X97056Y-89106D01*
G01X97056Y-87925D02*
G01X96324Y-87925D01*
G01X97056Y-88486D02*
G01X96604Y-88486D01*
G01X97056Y-89106D02*
G01X96324Y-89106D01*
G01X95067Y-88093D02*
G01X95179Y-87981D01*
G01X95347Y-87925D01*
G01X95573D01*
G01X95740Y-87981D01*
G01X95855Y-88093D01*
G01Y-88205D01*
G01X95799Y-88319D01*
G01X95740Y-88375D01*
G01X95628Y-88431D01*
G01X95291Y-88542D01*
G01X95179Y-88598D01*
G01X95123Y-88654D01*
G01X95067Y-88768D01*
G01Y-88936D01*
G01X95179Y-89048D01*
G01X95347Y-89106D01*
G01X95573D01*
G01X95740Y-89048D01*
G01X95855Y-88936D01*
G01X94597Y-87925D02*
G01X94597Y-89106D01*
G01X94597Y-87925D02*
G01X94089Y-87925D01*
G01X93922Y-87981D01*
G01X93866Y-88037D01*
G01X93810Y-88149D01*
G01Y-88319D01*
G01X93866Y-88431D01*
G01X93922Y-88486D01*
G01X94089Y-88542D01*
G01X94597D01*
G01X93226Y-87925D02*
G01X92608Y-87925D01*
G01X92946Y-88375D01*
G01X92776D01*
G01X92664Y-88431D01*
G01X92608Y-88486D01*
G01X92550Y-88654D01*
G01Y-88768D01*
G01X92608Y-88936D01*
G01X92720Y-89048D01*
G01X92888Y-89106D01*
G01X93058D01*
G01X93226Y-89048D01*
G01X93282Y-88992D01*
G01X93340Y-88880D01*
G01X92024Y-88205D02*
G01X92024Y-88149D01*
G01X91968Y-88037D01*
G01X91912Y-87981D01*
G01X91801Y-87925D01*
G01X91575D01*
G01X91463Y-87981D01*
G01X91407Y-88037D01*
G01X91351Y-88149D01*
G01Y-88260D01*
G01X91407Y-88375D01*
G01X91519Y-88542D01*
G01X92080Y-89106D01*
G01X91293D01*
G01X90823Y-88598D02*
G01X89812Y-88598D01*
G01X88555Y-88093D02*
G01X88666Y-87981D01*
G01X88834Y-87925D01*
G01X89060D01*
G01X89228Y-87981D01*
G01X89342Y-88093D01*
G01Y-88205D01*
G01X89286Y-88319D01*
G01X89228Y-88375D01*
G01X89116Y-88431D01*
G01X88778Y-88542D01*
G01X88666Y-88598D01*
G01X88610Y-88654D01*
G01X88555Y-88768D01*
G01Y-88936D01*
G01X88666Y-89048D01*
G01X88834Y-89106D01*
G01X89060D01*
G01X89228Y-89048D01*
G01X89342Y-88936D01*
G01X87970Y-87925D02*
G01X87353Y-87925D01*
G01X87691Y-88375D01*
G01X87521D01*
G01X87409Y-88431D01*
G01X87353Y-88486D01*
G01X87297Y-88654D01*
G01Y-88768D01*
G01X87353Y-88936D01*
G01X87465Y-89048D01*
G01X87633Y-89106D01*
G01X87803D01*
G01X87970Y-89048D01*
G01X88026Y-88992D01*
G01X88085Y-88880D01*
G01X86827Y-88598D02*
G01X85814Y-88598D01*
G01X85344Y-87925D02*
G01X85344Y-89106D01*
G01X84874Y-88319D02*
G01X84874Y-89106D01*
G01X84874Y-88542D02*
G01X84704Y-88375D01*
G01X84592Y-88319D01*
G01X84425D01*
G01X84310Y-88375D01*
G01X84254Y-88542D01*
G01Y-89106D01*
G01X83784Y-87925D02*
G01X83784Y-89106D01*
G01X83223Y-88319D02*
G01X83784Y-88880D01*
G01X83561Y-88654D02*
G01X83167Y-89106D01*
G01X82697Y-88598D02*
G01X81684Y-88598D01*
G01X81214Y-87925D02*
G01X81214Y-89106D01*
G01X81214Y-87925D02*
G01X80820Y-87925D01*
G01X80650Y-87981D01*
G01X80538Y-88093D01*
G01X80482Y-88205D01*
G01X80427Y-88375D01*
G01Y-88654D01*
G01X80482Y-88824D01*
G01X80538Y-88936D01*
G01X80650Y-89048D01*
G01X80820Y-89106D01*
G01X81214D01*
G01X79957Y-87925D02*
G01X79901Y-87981D01*
G01X79845Y-87925D01*
G01X79901Y-87867D01*
G01X79957Y-87925D01*
G01X79901Y-88319D02*
G01X79901Y-89106D01*
G01X78755Y-88486D02*
G01X78811Y-88375D01*
G01X78979Y-88319D01*
G01X79149D01*
G01X79317Y-88375D01*
G01X79375Y-88486D01*
G01X79317Y-88598D01*
G01X79205Y-88654D01*
G01X78923Y-88713D01*
G01X78811Y-88768D01*
G01X78755Y-88880D01*
G01Y-88936D01*
G01X78811Y-89048D01*
G01X78979Y-89106D01*
G01X79149D01*
G01X79317Y-89048D01*
G01X79375Y-88936D01*
G01X78285Y-88319D02*
G01X78285Y-89500D01*
G01X78285Y-88486D02*
G01X78174Y-88375D01*
G01X78059Y-88319D01*
G01X77892D01*
G01X77780Y-88375D01*
G01X77666Y-88486D01*
G01X77610Y-88654D01*
G01Y-88768D01*
G01X77666Y-88936D01*
G01X77780Y-89048D01*
G01X77892Y-89106D01*
G01X78059D01*
G01X78174Y-89048D01*
G01X78285Y-88936D01*
G01X77140Y-87925D02*
G01X77140Y-89106D01*
G01X75994Y-88319D02*
G01X75994Y-89106D01*
G01X75994Y-88486D02*
G01X76109Y-88375D01*
G01X76220Y-88319D01*
G01X76388D01*
G01X76502Y-88375D01*
G01X76614Y-88486D01*
G01X76670Y-88654D01*
G01Y-88768D01*
G01X76614Y-88936D01*
G01X76502Y-89048D01*
G01X76388Y-89106D01*
G01X76220D01*
G01X76109Y-89048D01*
G01X75994Y-88936D01*
G01X75468Y-88319D02*
G01X75131Y-89106D01*
G01X74793Y-88319D02*
G01X75131Y-89106D01*
G01X75245Y-89330D01*
G01X75357Y-89442D01*
G01X75468Y-89500D01*
G01X75524D01*
G01X97056Y-90318D02*
G01X96718Y-91105D01*
G01X96380Y-90318D02*
G01X96718Y-91105D01*
G01X95910Y-90150D02*
G01X95799Y-90092D01*
G01X95628Y-89924D01*
G01Y-91105D01*
G01X95103Y-90823D02*
G01X95159Y-90879D01*
G01X95103Y-90938D01*
G01X95047Y-90879D01*
G01X95103Y-90823D01*
G01X94239Y-89924D02*
G01X94407Y-89980D01*
G01X94521Y-90150D01*
G01X94577Y-90430D01*
G01Y-90600D01*
G01X94521Y-90879D01*
G01X94407Y-91049D01*
G01X94239Y-91105D01*
G01X94127D01*
G01X93957Y-91049D01*
G01X93845Y-90879D01*
G01X93790Y-90600D01*
G01Y-90430D01*
G01X93845Y-90150D01*
G01X93957Y-89980D01*
G01X94127Y-89924D01*
G01X94239D01*
G01X97056Y-91923D02*
G01X97056Y-93104D01*
G01X97056Y-91923D02*
G01X96662Y-91923D01*
G01X96492Y-91982D01*
G01X96380Y-92093D01*
G01X96324Y-92205D01*
G01X96269Y-92375D01*
G01Y-92655D01*
G01X96324Y-92825D01*
G01X96380Y-92937D01*
G01X96492Y-93048D01*
G01X96662Y-93104D01*
G01X97056D01*
G01X95517Y-92317D02*
G01X95628Y-92375D01*
G01X95740Y-92487D01*
G01X95799Y-92655D01*
G01Y-92769D01*
G01X95740Y-92937D01*
G01X95628Y-93048D01*
G01X95517Y-93104D01*
G01X95347D01*
G01X95235Y-93048D01*
G01X95123Y-92937D01*
G01X95067Y-92769D01*
G01Y-92655D01*
G01X95123Y-92487D01*
G01X95235Y-92375D01*
G01X95347Y-92317D01*
G01X95517D01*
G01X94597Y-92317D02*
G01X94597Y-93104D01*
G01X94597Y-92543D02*
G01X94427Y-92375D01*
G01X94315Y-92317D01*
G01X94145D01*
G01X94033Y-92375D01*
G01X93977Y-92543D01*
G01Y-93104D01*
G01X92832Y-92317D02*
G01X92832Y-93104D01*
G01X92832Y-92487D02*
G01X92946Y-92375D01*
G01X93058Y-92317D01*
G01X93226D01*
G01X93340Y-92375D01*
G01X93452Y-92487D01*
G01X93508Y-92655D01*
G01Y-92769D01*
G01X93452Y-92937D01*
G01X93340Y-93048D01*
G01X93226Y-93104D01*
G01X93058D01*
G01X92946Y-93048D01*
G01X92832Y-92937D01*
G01X92362Y-91923D02*
G01X92362Y-93104D01*
G01X91216Y-91923D02*
G01X91216Y-93104D01*
G01X91216Y-92487D02*
G01X91331Y-92375D01*
G01X91443Y-92317D01*
G01X91610D01*
G01X91724Y-92375D01*
G01X91836Y-92487D01*
G01X91892Y-92655D01*
G01Y-92769D01*
G01X91836Y-92937D01*
G01X91724Y-93048D01*
G01X91610Y-93104D01*
G01X91443D01*
G01X91331Y-93048D01*
G01X91216Y-92937D01*
G04 Text End*

G04 Rect Start*
G01X74168Y-87111D02*
G01X74168Y-94107D01*
G01X97917D01*
G01Y-87111D01*
G01X74168D01*
G04 Rect End*

M02*
